<?xml version="1.0" ?><!DOCTYPE svg  PUBLIC '-//W3C//DTD SVG 1.1//EN'  'http://www.w3.org/Graphics/SVG/1.1/DTD/svg11.dtd'><svg enable-background="new 0 0 500 500" height="500px" id="Layer_1" version="1.1" viewBox="0 0 500 500" width="500px" xml:space="preserve" xmlns="http://www.w3.org/2000/svg" xmlns:xlink="http://www.w3.org/1999/xlink"><path clip-rule="evenodd" d="M422.624,304.514V86.463c0-20.079-16.261-36.343-36.34-36.343  H113.718c-20.079,0-36.343,16.264-36.343,36.343v218.051l-45.426,90.854v18.172c0,20.079,16.264,36.341,36.34,36.341h363.421  c20.078,0,36.34-16.262,36.34-36.341v-18.172L422.624,304.514z M142.793,95.549h214.413c11.081,0,19.992,8.902,19.992,19.989v141.73  c0,11.081-8.911,19.991-19.992,19.991H142.793c-11.086,0-19.991-8.91-19.991-19.991v-141.73  C122.802,104.451,131.707,95.549,142.793,95.549z M195.487,359.026h109.026l9.086,36.341H186.401L195.487,359.026z" fill="#010101" fill-rule="evenodd"/></svg>